<?xml version="1.0" encoding="UTF-8" standalone="no"?>
<!-- Generator: Adobe Illustrator 16.2.1, SVG Export Plug-In . SVG Version: 6.00 Build 0)  -->

<svg
   xmlns:dc="http://purl.org/dc/elements/1.1/"
   xmlns:cc="http://creativecommons.org/ns#"
   xmlns:rdf="http://www.w3.org/1999/02/22-rdf-syntax-ns#"
   xmlns:svg="http://www.w3.org/2000/svg"
   xmlns="http://www.w3.org/2000/svg"
   xmlns:sodipodi="http://sodipodi.sourceforge.net/DTD/sodipodi-0.dtd"
   xmlns:inkscape="http://www.inkscape.org/namespaces/inkscape"
   version="1.1"
   id="Слой_1"
   x="0px"
   y="0px"
   width="500"
   height="500"
   viewBox="0 0 500 500"
   enable-background="new 0 0 22 32"
   xml:space="preserve"
   sodipodi:docname="lightbulb.svg"
   inkscape:version="0.92.2 (5c3e80d, 2017-08-06)"
   inkscape:export-filename="/home/jason/current-projects/iotHome/lightswitch/lightbulb.png"
   inkscape:export-xdpi="96"
   inkscape:export-ydpi="96"><metadata
     id="metadata35"><rdf:RDF><cc:Work
         rdf:about=""><dc:format>image/svg+xml</dc:format><dc:type
           rdf:resource="http://purl.org/dc/dcmitype/StillImage" /><dc:title></dc:title></cc:Work></rdf:RDF></metadata><defs
     id="defs33" /><sodipodi:namedview
     pagecolor="#ffffff"
     bordercolor="#666666"
     borderopacity="1"
     objecttolerance="10"
     gridtolerance="10"
     guidetolerance="10"
     inkscape:pageopacity="0"
     inkscape:pageshadow="2"
     inkscape:window-width="640"
     inkscape:window-height="480"
     id="namedview31"
     showgrid="false"
     inkscape:zoom="1.616"
     inkscape:cx="250"
     inkscape:cy="250"
     inkscape:current-layer="Слой_1"
     showguides="true"
     inkscape:guide-bbox="true" /><g
     id="g10"
     transform="matrix(15.562199,0,0,15.562199,78.784685,0.15319556)"><g
       id="g4"><path
         d="M 22,11 C 22,4.926 17.075,0 11,0 4.925,0 0,4.926 0,11 0,15.662 2.905,19.639 7,21.238 V 24 h 8 V 21.238 C 19.095,19.639 22,15.662 22,11 Z"
         id="path2"
         inkscape:connector-curvature="0"
         style="fill:#efc75e" /></g><g
       id="g8"><path
         d="M 22,11 C 22,4.926 17.075,0 11,0 4.925,0 0,4.926 0,11 0,15.662 2.905,19.639 7,21.238 V 24 h 8 V 21.238 C 19.095,19.639 22,15.662 22,11 Z"
         id="path6"
         inkscape:connector-curvature="0"
         style="fill:#efc75e" /></g></g><path
     d="m 219.85602,219.37789 c 2.14759,0.0778 4.34186,0.10893 6.6295,0.0467 8.73039,-0.23344 16.68268,-2.30321 23.49892,-5.99145 6.81624,3.67268 14.78409,5.74245 23.49892,5.99145 2.27208,0.0622 4.46635,0.0311 6.59837,-0.0467 -6.05369,49.61229 -10.97135,118.8952 -11.26703,122.75462 l 6.3805,0.35794 h -50.45264 l 6.3805,-0.35794 c -0.26456,-3.85942 -5.19778,-73.14233 -11.26704,-122.75462 z m 25.75544,-46.88891 c 0.7003,-0.98042 1.55622,-1.64959 3.43925,-1.64959 0.15562,0 0.31124,0.0156 0.4513,0.0156 l 0.51356,0.0311 0.4513,-0.0311 c 2.22539,-0.10893 3.128,0.5758 3.89055,1.63403 2.17871,3.15913 2.27208,10.31774 -1.7274,17.39854 -0.65362,1.13604 -1.5251,2.47439 -2.64558,3.84386 -1.12048,-1.36947 -2.00752,-2.69226 -2.66113,-3.84386 -4.03061,-7.0808 -3.89055,-14.23941 -1.71185,-17.39854 z m 39.40349,169.84584 c 0.54468,-7.90559 5.6802,-78.05999 11.64053,-125.32239 15.46882,-3.98392 24.79058,-12.32526 28.68113,-20.40204 4.55972,-9.44625 2.77007,-19.54612 -4.83984,-26.98485 -7.09637,-6.98743 -14.08379,-6.44275 -17.63198,-5.4779 -11.40709,3.06576 -16.76048,17.19623 -17.75646,21.91158 -1.02711,4.93322 -2.06978,11.12697 -3.06576,18.14552 -2.52107,0.20231 -5.2289,0.28012 -8.12347,0.18675 -4.18623,-0.0934 -7.7811,-0.76255 -10.86241,-1.78965 1.43172,-1.77409 2.73895,-3.67268 3.89055,-5.6802 6.44275,-11.34485 6.84737,-24.10585 1.0271,-32.525 -3.95279,-5.72689 -10.52004,-8.8082 -17.97434,-8.55921 -7.54766,-0.26456 -14.02154,2.83232 -17.97434,8.55921 -5.83582,8.41915 -5.4312,21.18015 1.01155,32.525 1.1516,2.00752 2.45882,3.90611 3.89055,5.6802 -3.09688,1.0271 -6.70731,1.69628 -10.87798,1.78965 -2.89457,0.0934 -5.60239,0.0156 -8.12347,-0.18675 -0.99598,-7.01855 -2.03865,-13.2123 -3.05019,-18.14552 -0.98042,-4.71535 -6.33381,-18.84582 -17.74091,-21.91158 -3.56374,-0.96485 -10.55117,-1.52509 -17.63197,5.4779 -7.59435,7.45429 -9.39957,17.5386 -4.83984,26.98485 3.89055,8.07678 13.19674,16.41812 28.66557,20.40204 5.96032,47.24684 11.09585,117.38567 11.62496,125.32239 m 84.02031,-142.03619 c 0.66918,-4.29516 1.35392,-8.12347 2.02309,-11.3604 0.77811,-3.73493 4.45079,-9.74194 5.9292,-10.36443 0,0 0.63805,0.20231 1.80521,1.35391 3.00351,2.95682 3.64156,6.72287 1.82078,10.55118 -1.64959,3.40812 -5.41564,7.09636 -11.57828,9.81974 z m -97.9796,0 c -6.16263,-2.73894 -9.94425,-6.41162 -11.57828,-9.81974 -1.8519,-3.82831 -1.21385,-7.5788 1.82078,-10.56674 0.88705,-0.85592 1.43172,-1.16716 1.49397,-1.29166 1.94528,0.85592 5.4779,6.66062 6.22488,10.30218 0.7003,3.25249 1.36947,7.06523 2.03865,11.37596 z"
     id="path12"
     inkscape:connector-curvature="0"
     style="fill:#5b717c;stroke-width:15.56219864" /><path
     d="M 203.28228,315.10098 C 139.55507,290.18589 94.346889,228.32615 94.346889,155.77518 c 0,-43.66753 16.527051,-83.351132 43.465221,-113.557361 -36.1043,31.388956 -59.027425,77.530871 -59.027425,129.119561 0,72.55097 45.208185,134.44184 108.935395,159.32579 v 27.80965 15.17315 h 124.4976 v -15.5622 h -108.9354 z"
     id="path14"
     inkscape:connector-curvature="0"
     style="fill:#d8b355;stroke-width:15.56219864" /><path
     d="m 242.18778,420.33256 h 15.5622 c 21.4914,0 38.9055,17.41411 38.9055,38.9055 0,21.4914 -17.4141,38.9055 -38.9055,38.9055 h -15.5622 c -21.4914,0 -38.9055,-17.4141 -38.9055,-38.9055 0,-21.49139 17.4141,-38.9055 38.9055,-38.9055 z"
     id="path16"
     inkscape:connector-curvature="0"
     style="fill:#b8bcbe;stroke-width:15.56219864" /><path
     d="m 203.28228,342.52157 h 93.3732 c 17.18066,0 31.12439,13.94373 31.12439,31.1244 v 62.24879 c 0,17.18067 -13.94373,31.1244 -31.12439,31.1244 h -93.3732 c -17.18067,0 -31.12439,-13.94373 -31.12439,-31.1244 v -62.24879 c 0,-17.18067 13.94372,-31.1244 31.12439,-31.1244 z"
     id="path18"
     inkscape:connector-curvature="0"
     style="fill:#ccd0d2;stroke-width:15.56219864" /><g
     id="g28"
     transform="matrix(15.562199,0,0,15.562199,78.784685,0.15319556)"><g
       id="g22"><path
         d="M 6,28 H 16 V 27 H 6 Z m 0,-4 v 1 h 10 v -1 z"
         id="path20"
         inkscape:connector-curvature="0"
         style="fill:#e4e7e7" /></g><g
       id="g26"><path
         d="M 6,28 H 16 V 27 H 6 Z m 0,-4 v 1 h 10 v -1 z"
         id="path24"
         inkscape:connector-curvature="0"
         style="fill:#e4e7e7" /></g></g></svg>